<?xml version="1.0" encoding="utf-8"?>
<svg width="256px" height="256px" viewBox="0 0 256 256" version="1.1" xmlns:xlink="http://www.w3.org/1999/xlink" xmlns="http://www.w3.org/2000/svg">
  <defs>
    <path d="M256 0L256 0L256 256L0 256L0 0L256 0Z" id="path_1" />
    <clipPath id="clip_1">
      <use xlink:href="#path_1" />
    </clipPath>
  </defs>
  <g id="FirstStepIcon" clip-path="url(#clip_1)">
    <path d="M256 0L256 0L256 256L0 256L0 0L256 0Z" id="FirstStepIcon" fill="none" stroke="none" />
    <path d="M0 0L256 0L256 256L0 256L0 0Z" id="Back" fill="none" fill-rule="evenodd" stroke="none" />
    <path d="M213.616 69.9102L135.499 24.8098Q135.074 24.5643 134.634 24.3472Q134.194 24.13 133.74 23.9421Q133.286 23.7542 132.821 23.5963Q132.356 23.4385 131.882 23.3114Q131.408 23.1843 130.926 23.0886Q130.445 22.9928 129.958 22.9287Q129.471 22.8646 128.981 22.8325Q128.491 22.8004 128 22.8004Q127.509 22.8004 127.019 22.8325Q126.529 22.8646 126.042 22.9287Q125.555 22.9928 125.074 23.0886Q124.592 23.1843 124.118 23.3114Q123.644 23.4385 123.179 23.5963Q122.714 23.7542 122.26 23.9421Q121.806 24.13 121.366 24.3472Q120.926 24.5643 120.5 24.8098L42.3844 69.9102Q41.9592 70.1557 41.5509 70.4285Q41.1427 70.7013 40.7531 71.0002Q40.3636 71.2991 39.9944 71.6228Q39.6252 71.9466 39.278 72.2938Q38.9308 72.641 38.6071 73.0102Q38.2833 73.3793 37.9844 73.7689Q37.6855 74.1584 37.4127 74.5667Q37.1399 74.975 36.8944 75.4002Q36.6489 75.8254 36.4317 76.2658Q36.2146 76.7062 36.0267 77.1598Q35.8388 77.6135 35.6809 78.0784Q35.5231 78.5434 35.396 79.0177Q35.2689 79.492 35.1731 79.9735Q35.0773 80.4551 35.0133 80.9419Q34.9492 81.4287 34.917 81.9187Q34.8849 82.4087 34.8849 82.8997L34.8849 173.1Q34.8849 173.591 34.917 174.081Q34.9492 174.571 35.0132 175.058Q35.0773 175.545 35.1731 176.026Q35.2689 176.508 35.396 176.982Q35.5231 177.457 35.6809 177.922Q35.8388 178.387 36.0267 178.84Q36.2146 179.294 36.4317 179.734Q36.6489 180.175 36.8944 180.6Q37.1399 181.025 37.4127 181.433Q37.6855 181.842 37.9844 182.231Q38.2833 182.621 38.6071 182.99Q38.9308 183.359 39.278 183.706Q39.6252 184.053 39.9944 184.377Q40.3636 184.701 40.7531 185Q41.1427 185.299 41.5509 185.572Q41.9592 185.844 42.3844 186.09L120.5 231.19Q120.926 231.436 121.366 231.653Q121.806 231.87 122.26 232.058Q122.714 232.246 123.179 232.404Q123.644 232.561 124.118 232.689Q124.592 232.816 125.074 232.911Q125.555 233.007 126.042 233.071Q126.529 233.135 127.019 233.168Q127.509 233.2 128 233.2Q128.491 233.2 128.981 233.168Q129.471 233.135 129.958 233.071Q130.445 233.007 130.926 232.911Q131.408 232.816 131.882 232.689Q132.356 232.561 132.821 232.404Q133.286 232.246 133.74 232.058Q134.193 231.87 134.634 231.653Q135.074 231.436 135.499 231.19L213.616 186.09Q214.041 185.844 214.449 185.572Q214.857 185.299 215.247 185Q215.636 184.701 216.006 184.377Q216.375 184.053 216.722 183.706Q217.069 183.359 217.393 182.99Q217.717 182.621 218.016 182.231Q218.314 181.842 218.587 181.433Q218.86 181.025 219.106 180.6Q219.351 180.175 219.568 179.734Q219.785 179.294 219.973 178.84Q220.161 178.387 220.319 177.922Q220.477 177.457 220.604 176.982Q220.731 176.508 220.827 176.026Q220.923 175.545 220.987 175.058Q221.051 174.571 221.083 174.081Q221.115 173.591 221.115 173.1L221.115 82.8997Q221.115 82.4087 221.083 81.9187Q221.051 81.4287 220.987 80.9419Q220.923 80.4551 220.827 79.9735Q220.731 79.4919 220.604 79.0177Q220.477 78.5434 220.319 78.0784Q220.161 77.6134 219.973 77.1598Q219.785 76.7062 219.568 76.2658Q219.351 75.8254 219.106 75.4002Q218.86 74.9749 218.587 74.5667Q218.314 74.1584 218.016 73.7689Q217.717 73.3793 217.393 73.0102Q217.069 72.641 216.722 72.2938Q216.375 71.9466 216.006 71.6228Q215.636 71.2991 215.247 71.0002Q214.857 70.7013 214.449 70.4285Q214.041 70.1557 213.616 69.9102ZM121.344 76.8L134.656 76.8C136.305 76.7988 138.24 78.5017 138.24 80.384L138.24 117.76L175.616 117.76C177.594 117.757 179.2 119.364 179.2 121.344L179.2 134.656C179.203 136.634 177.594 138.243 175.616 138.24L138.24 138.24L138.24 175.616C138.243 177.594 136.636 179.2 134.656 179.2L121.344 179.2C119.366 179.203 117.757 177.594 117.76 175.616L117.76 138.24L80.384 138.24C78.4064 138.243 76.8 136.636 76.8 134.656L76.8 121.344C76.7975 119.366 78.4039 117.76 80.384 117.76L117.76 117.76L117.76 80.384C117.757 78.4064 119.364 76.8 121.344 76.8Z" id="Polygon-Subtract" fill="#FFFFFF" fill-rule="evenodd" stroke="none" />
  </g>
</svg>