<?xml version="1.0" encoding="utf-8"?>
<svg width="27px" height="27px" viewBox="0 0 27 27" version="1.1" xmlns:xlink="http://www.w3.org/1999/xlink" xmlns="http://www.w3.org/2000/svg">
  <defs>
    <path d="M27 0L27 0L27 27L0 27L0 0L27 0Z" id="path_1" />
    <clipPath id="clip_1">
      <use xlink:href="#path_1" />
    </clipPath>
  </defs>
  <g id="Help" clip-path="url(#clip_1)">
    <path d="M27 0L27 0L27 27L0 27L0 0L27 0Z" id="Help" fill="none" stroke="none" />
    <path d="M0 0L27 0L27 27L0 27L0 0Z" id="Back" fill="none" fill-rule="evenodd" stroke="none" />
    <path d="M13.4999 2C7.1486 2 1.99988 7.14873 1.99988 13.5C1.99988 19.8513 7.1486 25 13.4999 25C19.8512 25 24.9999 19.8513 24.9999 13.5C24.9999 7.14873 19.8512 2 13.4999 2ZM11.3785 15.6011Q11.3785 14.6588 11.7789 13.98Q12.1793 13.3013 13.1998 12.5982Q14.1422 11.9586 14.4693 11.5289Q14.8014 11.0992 14.8014 10.5621Q14.8014 10.0396 14.3717 9.75152Q13.942 9.45856 13.2193 9.45856Q12.4186 9.45856 11.5787 9.72223Q10.7389 9.98102 9.84043 10.4595L8.63925 8.0816Q9.65976 7.50055 10.8609 7.1441Q12.0621 6.78277 13.4586 6.78277Q15.6217 6.78277 16.7984 7.77398Q17.9801 8.76031 17.9801 10.3179Q17.9801 11.5191 17.4088 12.3296Q16.8424 13.1402 15.6412 13.98Q14.7623 14.5806 14.4596 14.942Q14.1617 15.2984 14.1617 15.8404L14.1617 16.3824L11.3785 16.3824L11.3785 15.6011ZM11.0221 19.7613Q11.0221 18.7798 11.5689 18.3892Q12.1207 17.9986 12.9019 17.9986Q13.6393 17.9986 14.1861 18.3892Q14.7379 18.7798 14.7379 19.7613Q14.7379 20.6988 14.1861 21.1089Q13.6393 21.5191 12.9019 21.5191Q12.1207 21.5191 11.5689 21.1089Q11.0221 20.6988 11.0221 19.7613Z" id="Help" fill="#FFFFFF" fill-rule="evenodd" stroke="none" />
  </g>
</svg>