<?xml version="1.0" encoding="utf-8"?>
<svg width="256px" height="256px" viewBox="0 0 256 256" version="1.1" xmlns:xlink="http://www.w3.org/1999/xlink" xmlns="http://www.w3.org/2000/svg">
  <g id="SecondStepIcon">
    <path d="M256 0L256 0L256 256L0 256L0 0L256 0Z" id="SecondStepIcon" fill="none" stroke="none" />
    <path d="M0 0L256 0L256 256L0 256L0 0Z" id="Back" fill="none" fill-rule="evenodd" stroke="none" />
    <path d="M197.12 25.6001L58.8795 25.6C49.7816 25.6 48.6395 38.242 48.6395 38.242C48.6395 38.242 30.7204 169.718 30.7206 217.757C30.7206 230.725 48.6405 230.399 48.6405 230.399L207.361 230.399C207.361 230.399 225.28 230.453 225.28 217.757C225.28 169.718 207.36 38.242 207.36 38.242C207.36 38.242 206.347 25.6001 197.12 25.6001ZM216.6 182.36C217.153 182.36 217.6 182.807 217.6 183.36L217.6 216.757C217.6 217.309 217.153 217.757 216.6 217.757L39.4005 217.757C38.8481 217.757 38.4005 217.309 38.4005 216.757L38.4005 183.36C38.4005 182.807 38.8481 182.36 39.4005 182.36L216.6 182.36ZM48.6405 200.058C48.6405 197.265 50.9328 195.001 53.7605 195.001C56.5882 195.001 58.8805 197.265 58.8805 200.058C58.8805 202.851 56.5882 205.115 53.7605 205.115C50.9328 205.115 48.6405 202.851 48.6405 200.058Z" id="Icon" fill="#FFFFFF" fill-rule="evenodd" stroke="none" />
  </g>
</svg>