<?xml version="1.0" encoding="utf-8"?>
<svg width="256px" height="256px" viewBox="0 0 256 256" version="1.1" xmlns:xlink="http://www.w3.org/1999/xlink" xmlns="http://www.w3.org/2000/svg">
  <defs>
    <path d="M256 0L256 0L256 256L0 256L0 0L256 0Z" id="path_1" />
    <clipPath id="clip_1">
      <use xlink:href="#path_1" />
    </clipPath>
  </defs>
  <g id="Settings" clip-path="url(#clip_1)">
    <path d="M256 0L256 0L256 256L0 256L0 0L256 0Z" id="Settings" fill="none" stroke="none" />
    <path d="M111.896 21.3333C106.786 21.3333 102.419 24.945 101.437 29.9583L97.8748 48.25C89.1201 51.5605 81.0249 56.1856 73.9165 62.0208L56.3748 55.9792C51.5428 54.3152 46.2265 56.3132 43.6665 60.7292L27.5832 88.6042C25.0338 93.0308 25.9617 98.6507 29.8123 102L43.8748 114.229C43.1435 118.724 42.6665 123.299 42.6665 128C42.6665 132.701 43.1435 137.276 43.8748 141.771L29.8123 154C25.9617 157.349 25.0338 162.969 27.5832 167.396L43.6665 195.271C46.2158 199.698 51.5428 201.695 56.3748 200.042L73.9165 194C81.0226 199.832 89.124 204.441 97.8748 207.75L101.437 226.042C102.419 231.055 106.786 234.667 111.896 234.667L144.104 234.667C149.213 234.667 153.581 231.055 154.562 226.042L158.125 207.75C166.88 204.439 174.975 199.814 182.083 193.979L199.625 200.021C204.457 201.685 209.773 199.698 212.333 195.271L228.416 167.375C230.966 162.948 230.038 157.349 226.187 154L212.125 141.771C212.856 137.276 213.333 132.701 213.333 128C213.333 123.299 212.856 118.724 212.125 114.229L226.187 102C230.038 98.6507 230.966 93.0308 228.416 88.6042L212.333 60.7292C209.784 56.3025 204.457 54.305 199.625 55.9583L182.083 62C174.977 56.1685 166.876 51.5591 158.125 48.25L154.562 29.9583C153.581 24.945 149.213 21.3333 144.104 21.3333L111.896 21.3333L111.896 21.3333ZM128 85.3333C151.563 85.3333 170.667 104.437 170.667 128C170.667 151.563 151.563 170.667 128 170.667C104.437 170.667 85.3333 151.563 85.3333 128C85.3333 104.437 104.437 85.3333 128 85.3333L128 85.3333Z" id="Shape" fill="#FFFFFF" fill-rule="evenodd" stroke="none" />
  </g>
</svg>