<?xml version="1.0" encoding="utf-8"?>
<svg width="256px" height="256px" viewBox="0 0 256 256" version="1.1" xmlns="http://www.w3.org/2000/svg">
    <g id="TitleIcon">
        <path d="M256 0L256 0L256 256L0 256L0 0L256 0Z" id="TitleIcon" fill="none" stroke="none"/>
        <path d="M0 0L256 0L256 256L0 256L0 0Z" id="Back" fill="none" fill-rule="evenodd" stroke="none"/>
        <g id="Icon" transform="translate(33 0)">
            <path d="M38.4524 45.442C38.4524 69.4811 1.14438e-05 57.2051 1.14438e-05 93.9122C1.14438e-05 130.62 0 187.604 0 222.662C0 257.721 40.4451 255.986 47.5 255.986C54.555 255.986 138.463 255.986 145.516 255.986C152.569 255.986 190 256.953 190 222.662C190 188.372 190 131.621 190 93.91C190 56.1996 150.04 70.8637 150.04 45.442C150.04 45.4318 137.976 45.355 137.976 45.442C137.976 85.3495 174.921 68.6878 174.921 93.9122C174.921 137.595 174.921 204.318 174.921 222.662C174.921 241.007 151.164 240.082 145.516 240.082C139.868 240.082 51.9671 240.082 47.5 240.082C43.033 240.082 13.5714 241.587 13.5714 222.663C13.5714 203.738 13.5714 118.17 13.5714 93.9127C13.5714 69.6553 50.5159 83.7137 50.5159 45.4422C50.5159 45.3731 38.4524 45.348 38.4524 45.442Z"
                  id="Bottle" fill="#F8C822" fill-rule="evenodd" stroke="none"/>
            <path d="M25.6349 217.362L25.6349 124.206L25.6349 124.017C25.6342 111.288 25.6332 94.6689 55.7936 94.6689C86.1038 94.6689 89.3598 121.335 114.603 128.75C129.617 133.082 141.866 131.752 155.334 127.886C160.303 127.185 163.612 130.424 163.612 134.81L163.612 217.362C163.612 220.011 161.098 228.722 152.302 228.722L39.2064 228.722C32.0326 228.722 25.6349 225.189 25.6349 217.362ZM48.254 131.779C48.254 138.471 53.655 143.897 60.3175 143.897C66.9799 143.897 72.381 138.471 72.381 131.779C72.381 125.087 66.9799 119.661 60.3175 119.661C53.655 119.661 48.254 125.087 48.254 131.779ZM96.5079 136.323C96.5079 138.833 98.5333 140.867 101.032 140.867C103.53 140.867 105.556 138.833 105.556 136.323C105.556 133.814 103.53 131.779 101.032 131.779C98.5333 131.779 96.5079 133.814 96.5079 136.323ZM116.111 144.654C116.111 145.909 117.124 146.926 118.373 146.926C119.622 146.926 120.635 145.909 120.635 144.654C120.635 143.399 119.622 142.382 118.373 142.382C117.124 142.382 116.111 143.399 116.111 144.654ZM85.9524 150.713C85.9524 151.968 86.9651 152.985 88.2143 152.985C89.4635 152.985 90.4762 151.968 90.4762 150.713C90.4762 149.458 89.4635 148.441 88.2143 148.441C86.9651 148.441 85.9524 149.458 85.9524 150.713ZM72.381 171.161C72.381 177.854 77.782 183.279 84.4444 183.279C91.1069 183.279 96.5079 177.854 96.5079 171.161C96.5079 164.469 91.1069 159.044 84.4444 159.044C77.782 159.044 72.381 164.469 72.381 171.161ZM120.635 168.132C120.635 171.478 123.335 174.191 126.667 174.191C129.998 174.191 132.698 171.478 132.698 168.132C132.698 164.786 129.998 162.073 126.667 162.073C123.335 162.073 120.635 164.786 120.635 168.132ZM54.2857 180.25C54.2857 181.923 55.6359 183.279 57.3016 183.279C58.9672 183.279 60.3175 181.923 60.3175 180.25C60.3175 178.576 58.9672 177.22 57.3016 177.22C55.6359 177.22 54.2857 178.576 54.2857 180.25ZM63.3333 192.367C63.3333 194.877 65.3587 196.911 67.8571 196.911C70.3556 196.911 72.381 194.877 72.381 192.367C72.381 189.858 70.3556 187.823 67.8571 187.823C65.3587 187.823 63.3333 189.858 63.3333 192.367Z"
                  id="Tea" fill="#F8C822" fill-rule="evenodd" stroke="none"/>
            <g id="Bubbles" transform="translate(70.87302 30.294044)">
                <path d="M28.6508 66.6469C28.6508 61.6276 32.7015 57.5587 37.6984 57.5587C42.6953 57.5587 46.746 61.6276 46.746 66.6469C46.746 71.6662 42.6953 75.7351 37.6984 75.7351C32.7015 75.7351 28.6508 71.6662 28.6508 66.6469Z"
                      id="Oval" fill="#F8C822" fill-rule="evenodd" stroke="none"/>
                <path d="M55.7936 53.0146C55.7936 51.3415 57.1439 49.9852 58.8095 49.9852C60.4751 49.9852 61.8254 51.3415 61.8254 53.0146C61.8254 54.6877 60.4751 56.044 58.8095 56.044C57.1439 56.044 55.7936 54.6877 55.7936 53.0146Z"
                      id="Oval-2" fill="#F8C822" fill-rule="evenodd" stroke="none"/>
                <path d="M36.1905 27.2646C36.1905 23.0819 39.5661 19.6911 43.7302 19.6911C47.8942 19.6911 51.2698 23.0819 51.2698 27.2646C51.2698 31.4474 47.8942 34.8381 43.7302 34.8381C39.5661 34.8381 36.1905 31.4474 36.1905 27.2646Z"
                      id="Oval-3" fill="#F8C822" fill-rule="evenodd" stroke="none"/>
                <path d="M0 13.6323C0 6.10339 6.07614 0 13.5714 0C21.0667 0 27.1429 6.10339 27.1429 13.6323C27.1429 21.1612 21.0667 27.2646 13.5714 27.2646C6.07614 27.2646 0 21.1612 0 13.6323Z"
                      id="Oval-4" fill="#F8C822" fill-rule="evenodd" stroke="none"/>
            </g>
            <path d="M167.381 10C167.381 4.4764 162.905 0 157.381 0L31.1111 0C25.5875 0 21.1111 4.4764 21.1111 10L21.1111 27.8676C21.1111 33.3912 25.5875 37.8676 31.1111 37.8676L62.6385 37.8676C65.2782 28.2607 74.0411 21.2058 84.4444 21.2058C94.8478 21.2058 103.611 28.2607 106.25 37.8676L157.381 37.8676C162.905 37.8676 167.381 33.3912 167.381 27.8676L167.381 10Z"
                  id="Lid" fill="#F8C822" fill-rule="evenodd" stroke="none"/>
        </g>
    </g>
</svg>