<?xml version="1.0" encoding="utf-8"?>
<svg width="256px" height="256px" viewBox="0 0 256 256" version="1.1" xmlns:xlink="http://www.w3.org/1999/xlink" xmlns="http://www.w3.org/2000/svg">
  <g id="UploadArrow">
    <path d="M256 0L256 0L256 256L0 256L0 0L256 0Z" id="UploadArrow" fill="none" stroke="none" />
    <path d="M0 0L256 0L256 256L0 256L0 0Z" id="Back" fill="none" fill-rule="evenodd" stroke="none" />
    <path d="M32.2571 215.04L223.745 215.04C223.745 215.04 232.449 215.025 232.449 223.744C232.449 232.463 223.745 232.448 223.745 232.448L32.2571 232.448C32.2571 232.448 23.5531 232.191 23.5531 223.607C23.5531 215.023 32.2571 215.04 32.2571 215.04Z" id="Line" fill="#FFFFFF" fill-rule="evenodd" stroke="none" />
    <g id="Arrow" fill-opacity="1" transform="matrix(1 0 0 -1 53.888 185.6008)">
      <path d="M148.941 166.401L148.941 166.401L148.941 -3.8147e-06L0 -3.8147e-06L0 166.401L148.941 166.401Z" transform="matrix(1 0 0 -1 0 204.8008)" id="Arrow" fill="none" stroke="none" />
      <path d="M48.8136 12.8C48.8121 12.95 48.8136 96.0009 48.8136 96.0009C48.8136 96.0009 10.437 96.0009 10.4132 96.0009C-0.0394967 96.0009 4.01317 102.4 4.01317 102.4C4.01317 102.4 66.2807 166.401 74.4135 166.401C82.5463 166.401 144.814 102.4 144.814 102.4C144.814 102.4 148.934 96.0008 138.414 96.0008C138.434 96.0508 100.014 96.0009 100.014 96.0009L100.012 12.8C100.012 9.57853 100.014 13.7169 100.014 12.8C100.014 6.19379 100.208 3.67407e-07 87.2136 1.67591e-06C87.2123 0.0551486 61.6872 -0.0250028 61.6136 -2.81958e-06C48.688 -2.81958e-06 48.8136 6.43378 48.8136 12.8Z" id="Arrow" fill="#FFFFFF" fill-rule="evenodd" stroke="none" />
    </g>
  </g>
</svg>